# Blender 4.0.2
# www.blender.org
mtllib untitled.mtl
o Cube
v -7.130004 -0.320171 4.954876
v -7.130004 0.320171 4.954876
v -7.130004 -0.320171 -4.954876
v -7.130004 0.320171 -4.954876
v 7.130004 -0.320171 4.954876
v 7.130004 0.320171 4.954876
v 7.130004 -0.320171 -4.954876
v 7.130004 0.320171 -4.954876
vn -1.0000 -0.0000 -0.0000
vn -0.0000 -0.0000 -1.0000
vn 1.0000 -0.0000 -0.0000
vn -0.0000 -0.0000 1.0000
vn -0.0000 -1.0000 -0.0000
vn -0.0000 1.0000 -0.0000
vt 0.375000 0.000000
vt 0.625000 0.000000
vt 0.625000 0.250000
vt 0.375000 0.250000
vt 0.625000 0.500000
vt 0.375000 0.500000
vt 0.625000 0.750000
vt 0.375000 0.750000
vt 0.625000 1.000000
vt 0.375000 1.000000
vt 0.125000 0.500000
vt 0.125000 0.750000
vt 0.875000 0.500000
vt 0.875000 0.750000
s 0
f 1/1/1 2/2/1 4/3/1 3/4/1
f 3/4/2 4/3/2 8/5/2 7/6/2
f 7/6/3 8/5/3 6/7/3 5/8/3
f 5/8/4 6/7/4 2/9/4 1/10/4
f 3/11/5 7/6/5 5/8/5 1/12/5
f 8/5/6 4/13/6 2/14/6 6/7/6
o Cube.001
v -7.130004 3.247161 5.549445
v -7.130004 3.247161 4.909104
v -7.130004 0.227730 5.549445
v -7.130004 0.227730 4.909104
v 7.130004 3.247161 5.549445
v 7.130004 3.247161 4.909104
v 7.130004 0.227730 5.549445
v 7.130004 0.227730 4.909104
vn -1.0000 -0.0000 -0.0000
vn -0.0000 -1.0000 -0.0000
vn 1.0000 -0.0000 -0.0000
vn -0.0000 1.0000 -0.0000
vn -0.0000 -0.0000 1.0000
vn -0.0000 -0.0000 -1.0000
vt 0.375000 0.000000
vt 0.625000 0.000000
vt 0.625000 0.250000
vt 0.375000 0.250000
vt 0.625000 0.500000
vt 0.375000 0.500000
vt 0.625000 0.750000
vt 0.375000 0.750000
vt 0.625000 1.000000
vt 0.375000 1.000000
vt 0.125000 0.500000
vt 0.125000 0.750000
vt 0.875000 0.500000
vt 0.875000 0.750000
s 0
f 9/15/7 10/16/7 12/17/7 11/18/7
f 11/18/8 12/17/8 16/19/8 15/20/8
f 15/20/9 16/19/9 14/21/9 13/22/9
f 13/22/10 14/21/10 10/23/10 9/24/10
f 11/25/11 15/20/11 13/22/11 9/26/11
f 16/19/12 12/27/12 10/28/12 14/21/12
o Cube.002
v -7.130004 3.297547 -4.941384
v -7.130004 3.297547 -5.581725
v -7.130004 0.278116 -4.941383
v -7.130004 0.278116 -5.581725
v 7.130004 3.297547 -4.941384
v 7.130004 3.297547 -5.581725
v 7.130004 0.278116 -4.941383
v 7.130004 0.278116 -5.581725
vn -1.0000 -0.0000 -0.0000
vn -0.0000 -1.0000 -0.0000
vn 1.0000 -0.0000 -0.0000
vn -0.0000 1.0000 -0.0000
vn -0.0000 -0.0000 1.0000
vn -0.0000 -0.0000 -1.0000
vt 0.375000 0.000000
vt 0.625000 0.000000
vt 0.625000 0.250000
vt 0.375000 0.250000
vt 0.625000 0.500000
vt 0.375000 0.500000
vt 0.625000 0.750000
vt 0.375000 0.750000
vt 0.625000 1.000000
vt 0.375000 1.000000
vt 0.125000 0.500000
vt 0.125000 0.750000
vt 0.875000 0.500000
vt 0.875000 0.750000
s 0
f 17/29/13 18/30/13 20/31/13 19/32/13
f 19/32/14 20/31/14 24/33/14 23/34/14
f 23/34/15 24/33/15 22/35/15 21/36/15
f 21/36/16 22/35/16 18/37/16 17/38/16
f 19/39/17 23/34/17 21/36/17 17/40/17
f 24/33/18 20/41/18 18/42/18 22/35/18
o Cube.003
v -7.121600 0.282199 5.013109
v -7.761941 0.282199 5.013109
v -7.121600 3.260208 5.013109
v -7.761941 3.260208 5.013109
v -7.121601 0.282199 -5.013109
v -7.761942 0.282199 -5.013109
v -7.121601 3.260208 -5.013109
v -7.761942 3.260208 -5.013109
vn -0.0000 -0.0000 1.0000
vn -0.0000 1.0000 -0.0000
vn -0.0000 -0.0000 -1.0000
vn -0.0000 -1.0000 -0.0000
vn 1.0000 -0.0000 -0.0000
vn -1.0000 -0.0000 -0.0000
vt 0.375000 0.000000
vt 0.625000 0.000000
vt 0.625000 0.250000
vt 0.375000 0.250000
vt 0.625000 0.500000
vt 0.375000 0.500000
vt 0.625000 0.750000
vt 0.375000 0.750000
vt 0.625000 1.000000
vt 0.375000 1.000000
vt 0.125000 0.500000
vt 0.125000 0.750000
vt 0.875000 0.500000
vt 0.875000 0.750000
s 0
f 25/43/19 27/46/19 28/45/19 26/44/19
f 27/46/20 31/48/20 32/47/20 28/45/20
f 31/48/21 29/50/21 30/49/21 32/47/21
f 29/50/22 25/52/22 26/51/22 30/49/22
f 27/53/23 25/54/23 29/50/23 31/48/23
f 32/47/24 30/49/24 26/56/24 28/55/24
o Cube.004
v 7.731091 0.282199 5.013109
v 7.090749 0.282199 5.013109
v 7.731091 3.260208 5.013109
v 7.090749 3.260208 5.013109
v 7.731090 0.282199 -5.013109
v 7.090749 0.282199 -5.013109
v 7.731090 3.260208 -5.013109
v 7.090749 3.260208 -5.013109
vn -0.0000 -0.0000 1.0000
vn -0.0000 1.0000 -0.0000
vn -0.0000 -0.0000 -1.0000
vn -0.0000 -1.0000 -0.0000
vn 1.0000 -0.0000 -0.0000
vn -1.0000 -0.0000 -0.0000
vt 0.375000 0.000000
vt 0.625000 0.000000
vt 0.625000 0.250000
vt 0.375000 0.250000
vt 0.625000 0.500000
vt 0.375000 0.500000
vt 0.625000 0.750000
vt 0.375000 0.750000
vt 0.625000 1.000000
vt 0.375000 1.000000
vt 0.125000 0.500000
vt 0.125000 0.750000
vt 0.875000 0.500000
vt 0.875000 0.750000
s 0
f 33/57/25 35/60/25 36/59/25 34/58/25
f 35/60/26 39/62/26 40/61/26 36/59/26
f 39/62/27 37/64/27 38/63/27 40/61/27
f 37/64/28 33/66/28 34/65/28 38/63/28
f 35/67/29 33/68/29 37/64/29 39/62/29
f 40/61/30 38/63/30 34/70/30 36/69/30
o Cube.005
v -3.866078 1.222709 9.015607
v -3.734267 1.760886 9.345598
v -0.979294 4.942138 1.796564
v -0.847483 5.480315 2.126555
v -3.272892 1.001776 9.138983
v -3.141081 1.539952 9.468973
v -0.386108 4.721205 1.919939
v -0.254297 5.259381 2.249930
vn -0.9198 0.3426 -0.1913
vn 0.3349 0.4316 -0.8376
vn 0.9198 -0.3426 0.1913
vn -0.3349 -0.4316 0.8376
vn -0.2044 -0.8345 -0.5117
vn 0.2044 0.8345 0.5117
vt 0.375000 0.000000
vt 0.625000 0.000000
vt 0.625000 0.250000
vt 0.375000 0.250000
vt 0.625000 0.500000
vt 0.375000 0.500000
vt 0.625000 0.750000
vt 0.375000 0.750000
vt 0.625000 1.000000
vt 0.375000 1.000000
vt 0.125000 0.500000
vt 0.125000 0.750000
vt 0.875000 0.500000
vt 0.875000 0.750000
s 0
f 41/71/31 42/72/31 44/73/31 43/74/31
f 43/74/32 44/73/32 48/75/32 47/76/32
f 47/76/33 48/75/33 46/77/33 45/78/33
f 45/78/34 46/77/34 42/79/34 41/80/34
f 43/81/35 47/76/35 45/78/35 41/82/35
f 48/75/36 44/83/36 42/84/36 46/77/36
o Cube.006
v -3.903520 -0.140692 9.880453
v -3.494743 1.528318 10.903831
v -3.233632 0.722413 8.205251
v -2.824855 2.391423 9.228630
v -3.698008 -0.217236 9.923197
v -3.289231 1.451775 10.946576
v -3.028121 0.645869 8.247995
v -2.619344 2.314880 9.271374
vn -0.9198 0.3426 -0.1913
vn 0.3349 0.4316 -0.8376
vn 0.9198 -0.3426 0.1913
vn -0.3349 -0.4316 0.8376
vn -0.2044 -0.8345 -0.5117
vn 0.2044 0.8345 0.5117
vt 0.375000 0.000000
vt 0.625000 0.000000
vt 0.625000 0.250000
vt 0.375000 0.250000
vt 0.625000 0.500000
vt 0.375000 0.500000
vt 0.625000 0.750000
vt 0.375000 0.750000
vt 0.625000 1.000000
vt 0.375000 1.000000
vt 0.125000 0.500000
vt 0.125000 0.750000
vt 0.875000 0.500000
vt 0.875000 0.750000
s 0
f 49/85/37 50/86/37 52/87/37 51/88/37
f 51/88/38 52/87/38 56/89/38 55/90/38
f 55/90/39 56/89/39 54/91/39 53/92/39
f 53/92/40 54/91/40 50/93/40 49/94/40
f 51/95/41 55/90/41 53/92/41 49/96/41
f 56/89/42 52/97/42 50/98/42 54/91/42
o Cube.007
v -2.955803 1.386603 -10.617834
v -3.362499 -0.236992 -9.523055
v -2.559012 2.413221 -8.947920
v -2.965707 0.789626 -7.853142
v -2.741580 1.324403 -10.630497
v -3.148275 -0.299192 -9.535719
v -2.344788 2.351021 -8.960584
v -2.751484 0.727427 -7.865805
vn -0.9588 0.2784 0.0567
vn 0.1984 0.5133 0.8350
vn 0.9588 -0.2784 -0.0567
vn -0.1984 -0.5133 -0.8350
vn 0.2033 0.8118 -0.5474
vn -0.2033 -0.8118 0.5474
vt 0.375000 0.000000
vt 0.625000 0.000000
vt 0.625000 0.250000
vt 0.375000 0.250000
vt 0.625000 0.500000
vt 0.375000 0.500000
vt 0.625000 0.750000
vt 0.375000 0.750000
vt 0.625000 1.000000
vt 0.375000 1.000000
vt 0.125000 0.500000
vt 0.125000 0.750000
vt 0.875000 0.500000
vt 0.875000 0.750000
s 0
f 57/99/43 58/100/43 60/101/43 59/102/43
f 59/102/44 60/101/44 64/103/44 63/104/44
f 63/104/45 64/103/45 62/105/45 61/106/45
f 61/106/46 62/105/46 58/107/46 57/108/46
f 59/109/47 63/104/47 61/106/47 57/110/47
f 64/103/48 60/111/48 58/112/48 62/105/48
o Cube.008
v -3.409244 1.662798 -9.092604
v -3.540384 1.139266 -8.739590
v -1.699328 6.086864 -1.896348
v -1.830468 5.563332 -1.543334
v -2.790912 1.483266 -9.129154
v -2.922052 0.959734 -8.776140
v -1.080996 5.907331 -1.932899
v -1.212136 5.383799 -1.579885
vn -0.9588 0.2784 0.0567
vn 0.1984 0.5133 0.8350
vn 0.9588 -0.2784 -0.0567
vn -0.1984 -0.5133 -0.8350
vn 0.2033 0.8118 -0.5474
vn -0.2033 -0.8118 0.5474
vt 0.375000 0.000000
vt 0.625000 0.000000
vt 0.625000 0.250000
vt 0.375000 0.250000
vt 0.625000 0.500000
vt 0.375000 0.500000
vt 0.625000 0.750000
vt 0.375000 0.750000
vt 0.625000 1.000000
vt 0.375000 1.000000
vt 0.125000 0.500000
vt 0.125000 0.750000
vt 0.875000 0.500000
vt 0.875000 0.750000
s 0
f 65/113/49 66/114/49 68/115/49 67/116/49
f 67/116/50 68/115/50 72/117/50 71/118/50
f 71/118/51 72/117/51 70/119/51 69/120/51
f 69/120/52 70/119/52 66/121/52 65/122/52
f 67/123/53 71/118/53 69/120/53 65/124/53
f 72/117/54 68/125/54 66/126/54 70/119/54
